REM DIRINDEX 1\2,1\3,1\4,1\5
REM DIRNAME folder01,folder02,folder03,folder04,folder05
TITLE ""
FILE "P1Q_t_1332-1341.mp3" MP3
  TRACK 01 AUDIO
    TITLE "3:cjc005_4903"
    INDEX 01 00:00:00
  TRACK 02 AUDIO
    TITLE "0:"
    INDEX 01 00:00:66
  TRACK 03 AUDIO
    TITLE "4:cjc005_4904"
    INDEX 01 00:01:21
  TRACK 04 AUDIO
    TITLE "0:"
    INDEX 01 00:02:32
  TRACK 05 AUDIO
    TITLE "5:cjc005_4905"
    INDEX 01 00:02:55
  TRACK 06 AUDIO
    TITLE "0:"
    INDEX 01 00:06:41
  TRACK 07 AUDIO
    TITLE "3:cjc005_4906"
    INDEX 01 00:07:17
  TRACK 08 AUDIO
    TITLE "0:"
    INDEX 01 00:08:34
  TRACK 09 AUDIO
    TITLE "4:cjc005_4907"
    INDEX 01 00:08:60
  TRACK 10 AUDIO
    TITLE "0:"
    INDEX 01 00:09:63
  TRACK 11 AUDIO
    TITLE "5:cjc005_4908"
    INDEX 01 00:10:12
  TRACK 12 AUDIO
    TITLE "0:"
    INDEX 01 00:13:24
  TRACK 13 AUDIO
    TITLE "3:cjc005_4909"
    INDEX 01 00:14:00
  TRACK 14 AUDIO
    TITLE "0:"
    INDEX 01 00:14:62
  TRACK 15 AUDIO
    TITLE "4:cjc005_4910"
    INDEX 01 00:15:23
  TRACK 16 AUDIO
    TITLE "0:"
    INDEX 01 00:16:32
  TRACK 17 AUDIO
    TITLE "5:cjc005_4911"
    INDEX 01 00:16:55
  TRACK 18 AUDIO
    TITLE "0:"
    INDEX 01 00:22:27
  TRACK 19 AUDIO
    TITLE "3:cjc005_4912"
    INDEX 01 00:23:08
  TRACK 20 AUDIO
    TITLE "0:"
    INDEX 01 00:24:25
  TRACK 21 AUDIO
    TITLE "4:cjc005_4913"
    INDEX 01 00:24:45
  TRACK 22 AUDIO
    TITLE "0:"
    INDEX 01 00:25:54
  TRACK 23 AUDIO
    TITLE "5:cjc005_4914"
    INDEX 01 00:26:09
  TRACK 24 AUDIO
    TITLE "0:"
    INDEX 01 00:31:63
  TRACK 25 AUDIO
    TITLE "3:cjc005_4915"
    INDEX 01 00:32:37
  TRACK 26 AUDIO
    TITLE "0:"
    INDEX 01 00:33:54
  TRACK 27 AUDIO
    TITLE "4:cjc005_4916"
    INDEX 01 00:34:02
  TRACK 28 AUDIO
    TITLE "0:"
    INDEX 01 00:35:17
  TRACK 29 AUDIO
    TITLE "5:cjc005_4917"
    INDEX 01 00:35:45
  TRACK 30 AUDIO
    TITLE "0:"
    INDEX 01 00:38:37
  TRACK 31 AUDIO
    TITLE "3:cjc005_4918"
    INDEX 01 00:39:13
  TRACK 32 AUDIO
    TITLE "0:"
    INDEX 01 00:40:24
  TRACK 33 AUDIO
    TITLE "4:cjc005_4919"
    INDEX 01 00:40:46
  TRACK 34 AUDIO
    TITLE "0:"
    INDEX 01 00:41:49
  TRACK 35 AUDIO
    TITLE "5:cjc005_4920"
    INDEX 01 00:41:73
  TRACK 36 AUDIO
    TITLE "0:"
    INDEX 01 00:46:33
  TRACK 37 AUDIO
    TITLE "3:cjc005_4921"
    INDEX 01 00:47:17
  TRACK 38 AUDIO
    TITLE "0:"
    INDEX 01 00:48:42
  TRACK 39 AUDIO
    TITLE "4:cjc005_4922"
    INDEX 01 00:48:69
  TRACK 40 AUDIO
    TITLE "0:"
    INDEX 01 00:49:70
  TRACK 41 AUDIO
    TITLE "5:cjc005_4923"
    INDEX 01 00:50:17
  TRACK 42 AUDIO
    TITLE "0:"
    INDEX 01 00:55:53
  TRACK 43 AUDIO
    TITLE "3:cjc005_4924"
    INDEX 01 00:56:27
  TRACK 44 AUDIO
    TITLE "0:"
    INDEX 01 00:57:41
  TRACK 45 AUDIO
    TITLE "4:cjc005_4925"
    INDEX 01 00:57:70
  TRACK 46 AUDIO
    TITLE "0:"
    INDEX 01 00:58:73
  TRACK 47 AUDIO
    TITLE "5:cjc005_4926"
    INDEX 01 00:59:24
  TRACK 48 AUDIO
    TITLE "0:"
    INDEX 01 01:05:15
  TRACK 49 AUDIO
    TITLE "3:cjc005_4927"
    INDEX 01 01:05:66
  TRACK 50 AUDIO
    TITLE "0:"
    INDEX 01 01:07:15
  TRACK 51 AUDIO
    TITLE "4:cjc005_4928"
    INDEX 01 01:07:43
  TRACK 52 AUDIO
    TITLE "0:"
    INDEX 01 01:08:54
  TRACK 53 AUDIO
    TITLE "5:cjc005_4929"
    INDEX 01 01:09:05
  TRACK 54 AUDIO
    TITLE "0:"
    INDEX 01 01:13:44
  TRACK 55 AUDIO
    TITLE "3:cjc005_4930"
    INDEX 01 01:14:21
  TRACK 56 AUDIO
    TITLE "0:"
    INDEX 01 01:15:27
  TRACK 57 AUDIO
    TITLE "4:cjc005_4931"
    INDEX 01 01:15:52
  TRACK 58 AUDIO
    TITLE "0:"
    INDEX 01 01:16:54
  TRACK 59 AUDIO
    TITLE "5:cjc005_4932"
    INDEX 01 01:17:00
  TRACK 60 AUDIO
    TITLE "0:"
    INDEX 01 01:22:23
